<svg id="Flat" height="512" viewBox="0 0 512 512" width="512" xmlns="http://www.w3.org/2000/svg"><path d="m488 304c0 128.13-103.87 184-232 184s-232-55.87-232-184 103.87-280 232-280 232 151.87 232 280z" fill="#ffc70d"/><path d="m256 456c-122.746 0-223.161-51.321-231.389-168.276-.361 5.455-.611 10.892-.611 16.276 0 128.13 103.87 184 232 184s232-55.87 232-184c0-5.384-.25-10.821-.611-16.276-8.228 116.955-108.643 168.276-231.389 168.276z" fill="#f89f00"/><path d="m280 240a8 8 0 0 1 -8-8 16 16 0 0 0 -32 0 8 8 0 0 1 -16 0 32 32 0 0 1 64 0 8 8 0 0 1 -8 8z" fill="#b46d2f"/><path d="m430.627 236.686c15.621 15.621 15.03 30.226 5.657 39.6s-23.977 9.964-39.6-5.657-16.97-50.911-16.97-50.911 35.292 1.347 50.913 16.968z" fill="#3db4d4"/><path d="m115.314 270.627c-15.621 15.621-30.226 15.03-39.6 5.657s-9.964-23.977 5.657-39.6 50.911-16.97 50.911-16.97-1.347 35.292-16.968 50.913z" fill="#3db4d4"/><circle cx="168" cy="184" fill="#fff" r="24"/><circle cx="168" cy="184" fill="#483d23" r="8"/><circle cx="344" cy="184" fill="#fff" r="24"/><circle cx="344" cy="184" fill="#483d23" r="8"/></svg>