<svg id="Flat" height="512" viewBox="0 0 512 512" width="512" xmlns="http://www.w3.org/2000/svg"><path d="m488 304c0 128.13-103.87 184-232 184s-232-55.87-232-184 103.87-280 232-280 232 151.87 232 280z" fill="#ffc70d"/><path d="m256 456c-122.746 0-223.161-51.321-231.389-168.276-.361 5.455-.611 10.892-.611 16.276 0 128.13 103.87 184 232 184s232-55.87 232-184c0-5.384-.25-10.821-.611-16.276-8.228 116.955-108.643 168.276-231.389 168.276z" fill="#f89f00"/><path d="m352 176h-32a8 8 0 0 1 0-16h32a8 8 0 0 1 0 16z" fill="#483d23"/><path d="m192 176h-32a8 8 0 0 1 0-16h32a8 8 0 0 1 0 16z" fill="#483d23"/><g fill="#b46d2f"><path d="m303.992 272a7.992 7.992 0 0 1 -4.43-1.344l-19.562-13.039-19.562 13.039a7.981 7.981 0 0 1 -8.876 0l-19.562-13.039-19.562 13.039a8 8 0 1 1 -8.876-13.312l24-16a7.981 7.981 0 0 1 8.876 0l19.562 13.039 19.562-13.039a7.981 7.981 0 0 1 8.876 0l24 16a8 8 0 0 1 -4.446 14.656z"/><path d="m168 240a8 8 0 0 1 -5.656-13.656l10.344-10.344-10.344-10.344a8 8 0 0 1 11.312-11.312l16 16a8 8 0 0 1 0 11.312l-16 16a7.971 7.971 0 0 1 -5.656 2.344z"/><path d="m344 240a7.971 7.971 0 0 1 -5.656-2.344l-16-16a8 8 0 0 1 0-11.312l16-16a8 8 0 0 1 11.312 11.312l-10.344 10.344 10.344 10.344a8 8 0 0 1 -5.656 13.656z"/></g></svg>