<svg id="Flat" height="512" viewBox="0 0 512 512" width="512" xmlns="http://www.w3.org/2000/svg"><path d="m488 304c0 128.13-103.87 184-232 184s-232-55.87-232-184 103.87-280 232-280 232 151.87 232 280z" fill="#ffc70d"/><path d="m256 456c-122.746 0-223.161-51.321-231.389-168.276-.361 5.455-.611 10.892-.611 16.276 0 128.13 103.87 184 232 184s232-55.87 232-184c0-5.384-.25-10.821-.611-16.276-8.228 116.955-108.643 168.276-231.389 168.276z" fill="#f89f00"/><circle cx="176" cy="200" fill="#fff" r="40"/><circle cx="336" cy="200" fill="#fff" r="40"/><circle cx="176" cy="200" fill="#483d23" r="8"/><circle cx="336" cy="200" fill="#483d23" r="8"/><path d="m288 255.992a7.962 7.962 0 0 1 -5.641-2.328c-3.836-3.797-16.039-13.664-26.359-13.664s-22.523 9.867-26.355 13.664a8 8 0 0 1 -11.3-11.32c1.874-1.875 18.882-18.344 37.655-18.344s35.781 16.469 37.656 18.344a8 8 0 0 1 -5.656 13.648z" fill="#b46d2f"/></svg>