<svg id="Flat" height="512" viewBox="0 0 512 512" width="512" xmlns="http://www.w3.org/2000/svg"><path d="m488 304c0 128.13-103.87 184-232 184s-232-55.87-232-184 103.87-280 232-280 232 151.87 232 280z" fill="#ffc70d"/><path d="m256 456c-122.746 0-223.161-51.321-231.389-168.276-.361 5.455-.611 10.892-.611 16.276 0 128.13 103.87 184 232 184s232-55.87 232-184c0-5.384-.25-10.821-.611-16.276-8.228 116.955-108.643 168.276-231.389 168.276z" fill="#f89f00"/><path d="m276 280h-40c-11.046 0-20-10.745-20-24 0-13.255 8.954-24 20-24h40c11.046 0 20 10.745 20 24 0 13.255-8.954 24-20 24z" fill="#483d23"/><circle cx="168" cy="184" fill="#fff" r="24"/><circle cx="168" cy="184" fill="#483d23" r="8"/><path d="m192 176h-48a8 8 0 0 1 0-16h48a8 8 0 0 1 0 16z" fill="#b46d2f"/><circle cx="344" cy="184" fill="#fff" r="24"/><circle cx="344" cy="184" fill="#483d23" r="8"/><path d="m368 176h-48a8 8 0 0 1 0-16h48a8 8 0 0 1 0 16z" fill="#b46d2f"/></svg>