<svg id="Flat" height="512" viewBox="0 0 512 512" width="512" xmlns="http://www.w3.org/2000/svg" xmlns:xlink="http://www.w3.org/1999/xlink"><linearGradient id="linear-gradient" gradientUnits="userSpaceOnUse" x1="256" x2="256" y1="488" y2="24"><stop offset="0" stop-color="#ffc70d"/><stop offset="1" stop-color="#e42e3d"/></linearGradient><path d="m488 304c0 128.13-103.87 184-232 184s-232-55.87-232-184 103.87-280 232-280 232 151.87 232 280z" fill="url(#linear-gradient)"/><path d="m256 456c-122.746 0-223.161-51.321-231.389-168.276-.361 5.455-.611 10.892-.611 16.276 0 128.13 103.87 184 232 184s232-55.87 232-184c0-5.384-.25-10.821-.611-16.276-8.228 116.955-108.643 168.276-231.389 168.276z" fill="#f89f00"/><path d="m256 456c-122.746 0-223.161-51.321-231.389-168.276-.361 5.455-.611 10.892-.611 16.276 0 128.13 103.87 184 232 184s232-55.87 232-184c0-5.384-.25-10.821-.611-16.276-8.228 116.955-108.643 168.276-231.389 168.276z" fill="#f89f00"/><g fill="#483d23"><ellipse cx="256" cy="264" rx="32" ry="48"/><path d="m215.992 192a7.961 7.961 0 0 1 -3.57-.844l-64-32a8 8 0 1 1 7.156-14.312l64 32a8 8 0 0 1 -3.586 15.156z"/><path d="m296.008 192a8 8 0 0 1 -3.586-15.156l64-32a8 8 0 1 1 7.156 14.312l-64 32a7.961 7.961 0 0 1 -3.57.844z"/></g><path d="m284.436 285.951c-5.285-12.986-15.981-21.951-28.436-21.951s-23.151 8.965-28.436 21.951c4.776 13.893 13.925 23.828 24.729 25.7a19.918 19.918 0 0 0 7.414 0c10.804-1.872 19.953-11.807 24.729-25.7z" fill="#ef5267"/><circle cx="184" cy="216" fill="#fff" r="24"/><circle cx="184" cy="216" fill="#483d23" r="8"/><circle cx="328" cy="216" fill="#fff" r="24"/><circle cx="328" cy="216" fill="#483d23" r="8"/></svg>