<svg id="Flat" height="512" viewBox="0 0 512 512" width="512" xmlns="http://www.w3.org/2000/svg"><path d="m488 304c0 128.13-103.87 184-232 184s-232-55.87-232-184 103.87-280 232-280 232 151.87 232 280z" fill="#ffc70d"/><path d="m256 456c-122.746 0-223.161-51.321-231.389-168.276-.361 5.455-.611 10.892-.611 16.276 0 128.13 103.87 184 232 184s232-55.87 232-184c0-5.384-.25-10.821-.611-16.276-8.228 116.955-108.643 168.276-231.389 168.276z" fill="#f89f00"/><path d="m256 288a40.047 40.047 0 0 1 -40-40 8 8 0 0 1 16 0 24 24 0 0 0 48 0 8 8 0 0 1 16 0 40.047 40.047 0 0 1 -40 40z" fill="#b46d2f"/><path d="m448 152h-384a8 8 0 0 0 0 16h384a8 8 0 0 0 0-16z" fill="#483d23"/><path d="m120 152h112a0 0 0 0 1 0 0v16a48 48 0 0 1 -48 48h-16a48 48 0 0 1 -48-48v-16a0 0 0 0 1 0 0z" fill="#483d23"/><path d="m184 152 15.361 61.444a47.85 47.85 0 0 1 -15.361 2.556h-16l-16-64z" fill="#918b7b"/><path d="m328 152h16a48 48 0 0 1 48 48v16a0 0 0 0 1 0 0h-112a0 0 0 0 1 0 0v-16a48 48 0 0 1 48-48z" fill="#483d23" transform="matrix(-1 0 0 -1 672 368)"/><path d="m328 152-15.361 61.444a47.85 47.85 0 0 0 15.361 2.556h16l16-64z" fill="#918b7b"/></svg>